<svg id="brand_logo" data-name="Brand Logo" xmlns="http://www.w3.org/2000/svg" viewBox="0 0 662.26 112">
  <defs>
    <style>
      .cls-1 {
        fill: #fff;
      }
    </style>
  </defs>
  <title>Avante Health Solutions</title>
  <g>
    <g>
      <path class="cls-1" d="M454.9,269.71V248a6.73,6.73,0,0,1-3.45.76H437.68c-1.78,0-3.73.7-3.73,2v19h-3.78V226.29H434v19.44a6.76,6.76,0,0,1,3.73-.81h13.55c1.73,0,3.73-.43,3.73-2V226.29h3.78v43.42Z" transform="translate(0 -220)"/>
      <path class="cls-1" d="M465.11,254c0-8.85,5.78-16.63,13.61-16.63,6.1,0,10.37,3.46,10.37,8.1,0,5-4.92,8.7-11.62,8.7h-7.39c-.92,0-1,.91-1,1.29,0,4.59,4.54,10.42,9.72,10.42,3.13,0,5.45-1,8-4.42l3,2.26c-2.65,3.57-5.62,6-11.07,6C470.56,269.71,465.11,262.26,465.11,254Zm4.05-3.61a4.79,4.79,0,0,1,.86-.11h7.35c4.75,0,7.88-2.11,7.88-4.86,0-1.95-1.83-4.32-6.53-4.32C474.18,241.09,470.29,245,469.16,250.38Z" transform="translate(0 -220)"/>
      <path class="cls-1" d="M494.16,260c0-5.46,5.4-9.72,11.67-9.72h6.58a1.28,1.28,0,0,0,1.3-1.46V247c0-3.13-3.24-5.89-7.45-5.89a8,8,0,0,0-6.43,2.92l-1.13,1.51-3-2.27,1.14-1.51a11.78,11.78,0,0,1,9.5-4.43c6,0,11.18,4.38,11.18,9.72v13c0,5.46-5.4,9.67-11.66,9.67S494.16,265.44,494.16,260Zm11.61-5.83c-4.32.05-7.94,2.64-7.94,5.83s3.62,5.88,7.94,5.88,7.94-2.75,7.94-5.88v-6.05a6,6,0,0,1-1.4.16Z" transform="translate(0 -220)"/>
      <path class="cls-1" d="M524.51,226.29h3.78v43.42h-3.78Z" transform="translate(0 -220)"/>
      <path class="cls-1" d="M551,265.93h.54v3.78H551c-6.43,0-11.67-5.73-11.67-12.53V226.29h3.78v11.77a9,9,0,0,1,1.68-.16h6.75v3.78h-6.75c-1.68,0-1.73.81-1.73,1.24v14.31C543.08,262.09,546.65,265.93,551,265.93Z" transform="translate(0 -220)"/>
      <path class="cls-1" d="M582.4,250.16v19.55h-3.78V250.16c0-4.81-3.57-8.64-7.89-8.64h-6.48a8.2,8.2,0,0,1-1.4-.11v28.3h-3.78V226.29h3.78v9.78c0,1.72,1.08,1.72,1.24,1.72h6.64C577.16,237.79,582.4,243.57,582.4,250.16Z" transform="translate(0 -220)"/>
      <path class="cls-1" d="M444.32,325.71a23.53,23.53,0,0,1-9.5-1.57,14.13,14.13,0,0,1-5.35-4.26l-1.19-1.46,3-2.27,1.13,1.46c1.84,2.32,4,4.37,11.88,4.37,7.24,0,11.45-3.4,11.45-8.69,0-4.75-4-6.16-11.67-8.05s-14.68-4.26-14.68-11.77c0-7.13,5.45-11.18,14.9-11.18a15.34,15.34,0,0,1,12,5.89l1.19,1.46-3,2.26-1.14-1.45a11.46,11.46,0,0,0-9-4.43c-7.45,0-11.07,2.48-11.07,7.4s4.11,6.31,11.83,8.2c3.35.81,6.86,1.68,9.61,3.24a9.42,9.42,0,0,1,5.08,8.37c0,8.16-6.75,12.48-15.34,12.48Z" transform="translate(0 -220)"/>
      <path class="cls-1" d="M463.76,309.51c0-8.91,6.32-16.15,14.09-16.15,8.48,0,14.1,7.89,14.1,16.15,0,9-6.32,16.2-14.1,16.2C469.38,325.71,463.76,317.82,463.76,309.51Zm3.78-.06c0,6.92,4.7,12.48,10.31,12.48s10.32-5.56,10.32-12.48S483.47,297,477.85,297,467.54,302.54,467.54,309.45Z" transform="translate(0 -220)"/>
      <path class="cls-1" d="M499.51,282.29h3.78v43.42h-3.78Z" transform="translate(0 -220)"/>
      <path class="cls-1" d="M512.09,313.29V293.36h3.78v19.93c0,4.8,3.56,8.64,7.88,8.64s7.89-3.84,7.89-8.64V293.36h3.78v19.93c0,6.86-5.29,12.42-11.67,12.42S512.09,320.15,512.09,313.29Z" transform="translate(0 -220)"/>
      <path class="cls-1" d="M555.56,321.93h.54v3.78h-.54c-6.43,0-11.67-5.73-11.67-12.53V282.29h3.78v11.77a9,9,0,0,1,1.68-.16h6.75v3.78h-6.75c-1.68,0-1.73.81-1.73,1.24v14.31C547.67,318.09,551.24,321.93,555.56,321.93Z" transform="translate(0 -220)"/>
      <path class="cls-1" d="M566.2,282.29a2.76,2.76,0,0,1,2.75,2.76,2.72,2.72,0,0,1-2.75,2.7,2.67,2.67,0,0,1-2.7-2.7A2.71,2.71,0,0,1,566.2,282.29Zm-1.79,11.07h3.78v32.35h-3.78Z" transform="translate(0 -220)"/>
      <path class="cls-1" d="M574.73,309.51c0-8.91,6.32-16.15,14.09-16.15,8.48,0,14.1,7.89,14.1,16.15,0,9-6.32,16.2-14.1,16.2C580.34,325.71,574.73,317.82,574.73,309.51Zm3.78-.06c0,6.92,4.7,12.48,10.31,12.48s10.32-5.56,10.32-12.48S594.44,297,588.82,297,578.51,302.54,578.51,309.45Z" transform="translate(0 -220)"/>
      <path class="cls-1" d="M628.57,325.71V305.78c0-4.8-3.57-8.64-7.89-8.64s-7.88,3.84-7.88,8.64v19.93H609V305.78c0-6.86,5.29-12.42,11.66-12.42s11.67,5.56,11.67,12.42v19.93Z" transform="translate(0 -220)"/>
      <path class="cls-1" d="M639,319.77l3-2.32c2.32,3.07,3.67,4.42,9,4.42,4.75,0,7.45-2.21,7.45-5.67,0-3.29-3.57-4.15-7.78-5.23-5.83-1.46-10.64-3.46-10.64-9,0-5.24,4-8.59,10.16-8.59,3.72,0,7.34,1.24,10.85,5.94l-3,2.32c-3-3.94-5.51-4.53-8.1-4.53-3.78,0-6.05,2-6.05,4.86,0,3.35,3.57,4.26,7.78,5.34,5.61,1.41,10.58,3.3,10.58,8.81s-4.48,9.61-11.28,9.61C644.55,325.71,641.8,323.49,639,319.77Z" transform="translate(0 -220)"/>
    </g>
    <rect class="cls-1" x="393.36" width="6.97" height="112"/>
    <g>
      <path class="cls-1" d="M0,322.07l32.08-92.14h9.1l32.07,92H61.65L51.3,292.61a14.91,14.91,0,0,1-6.14,1l-18.77-.11c-4.66,0-6,2.5-6.14,3l-8.87,25.6Zm24.68-38.22a6.38,6.38,0,0,1,3.3-.68H43c3.64,0,4.55-1.26,4.55-1.26L36.63,250.18Z" transform="translate(0 -220)"/>
      <polygon class="cls-1" points="95.66 102.07 69.84 32.8 81.67 32.8 100.33 82.5 118.75 32.8 130.58 32.8 104.76 102.07 95.66 102.07"/>
      <path class="cls-1" d="M136.72,300.68c0-12.28,12.29-21.38,25.71-21.38h7.4c3.18,0,7.27-1.71,7.27-5.12,0-5.23-5.57-10.35-13.53-10.35-5.12,0-9.56,2.05-15.24,9.67l-8.88-6.6c5.46-9.1,15.59-14.11,24-14.11,13.2,0,24.58,9.56,24.58,21.39v26.5c0,12.18-12.18,21.39-25.6,21.39s-25.71-9.21-25.71-21.39m11.15-.11c0,5.35,6.37,10.46,14.56,10.46S177,305.8,177,300.57V288.29s-.91,1.93-14.56,1.82c-8.19,0-14.56,5.11-14.56,10.46" transform="translate(0 -220)"/>
      <path class="cls-1" d="M244.9,322.07V279.75c0-9-6.71-15.92-14.45-15.92S216,270.77,216,279.75v42.32H205V279.75c0-14.67,11.26-27,25.48-27,14,0,25.48,12.18,25.48,27v42.32Z" transform="translate(0 -220)"/>
      <path class="cls-1" d="M297.79,311h2.73v11h-2.73A24.61,24.61,0,0,1,279.48,314a27.31,27.31,0,0,1-7.28-19V229.93h11v24.69s.68-.91,2.84-.91h14.45v11H287c-1.82,0-3.64,1-3.64,2.73v27.41c-.11,9.1,6.6,16.15,14.45,16.15" transform="translate(0 -220)"/>
      <path class="cls-1" d="M311.21,288.51c0-18.2,11.83-35.72,29.35-35.72,13.19,0,22.86,7.63,22.86,18.21,0,11.48-11.37,19.22-25.48,19.22H326.23a2.84,2.84,0,0,0-3.07,3.18c0,8.76,10,17.41,17.4,17.41,6,0,10.24-1.94,16-9.67l8.76,6.6c-5.92,8-13.2,14.33-24.57,14.33-17.29,0-29.58-16.15-29.58-33.56m11.6-7.73a6.46,6.46,0,0,1,4.67-1.6h10.58c9.21,0,14.44-4,14.44-8.18,0-2.73-2.73-7.17-11.71-7.17-8.19,0-15.47,6.71-18,16.95" transform="translate(0 -220)"/>
    </g>
  </g>
</svg>
